<?xml version="1.0" encoding="UTF-8"?><svg xmlns="http://www.w3.org/2000/svg" xmlns:xlink="http://www.w3.org/1999/xlink" height="974.9" preserveAspectRatio="xMidYMid meet" version="1.0" viewBox="31.1 36.5 709.4 974.9" width="709.4" zoomAndPan="magnify"><g stroke="#000"><g id="change1_1"><path d="m426.37 544.22 12.051 8.3194c-5.8484 4.3434-6.9159 6.653-8.5365 12.366l-94.296 136.87c-10.15 14.703-15.173 20.553-27.682 27.212 1.7499-13.731 5.0882-20.259 15.631-35.531l94.296-136.87c4.5951-3.4126 6.4369-4.9642 8.5365-12.366z" fill="#fff" stroke-linejoin="round" stroke-width="1.564" transform="matrix(2.7186 -1.8786 1.8786 2.7186 -1824.6 -395.8)"/></g><g id="change1_2"><path d="m308.14 728.98 112.03-162.28" fill="#fff" fill-rule="evenodd" stroke-width="1.564" transform="matrix(2.7186 -1.8786 1.8786 2.7186 -1824.6 -395.8)"/></g><g id="change1_3"><path d="m462.39 490.29c3.2397-0.76849 8.1772 2.365 8.6458 2.6673 0.49329 0.29819 4.9071 3.7472 5.248 7.1145-0.31003 2.8544-9.5256 8.8298-11.551 9.9919-2.5567-4.0504-2.7045-4.2794-7.472-5.4121 0.24953-1.9439 2.0811-12.636 5.1296-14.362z" fill="#fff" stroke-linejoin="round" stroke-width="1.564" transform="matrix(2.7186 -1.8786 1.8786 2.7186 -1824.6 -395.8)"/></g><g id="change1_4"><path d="m429.68 542.03c2.7651 4.2244 7.298 6.3275 10.152 5.779l25.162-37.693c-1.4299-3.6963-4.5473-5.4551-7.946-5.6513l-27.368 37.566z" fill="#fff" fill-rule="evenodd" stroke-width="1.5" transform="matrix(2.7186 -1.8786 1.8786 2.7186 -1824.6 -395.8)"/></g><g id="change1_5"><path d="m415.08 560.46c2.0657 1.7892 4.5358 4.2304 4.9718 6.4143 2.3483-0.31482 4.9993 0.92437 7.1474 1.952" fill="#fff" fill-rule="evenodd" stroke-width="1.564" transform="matrix(2.7186 -1.8786 1.8786 2.7186 -1824.6 -395.8)"/></g><g id="change1_6"><path d="m430.3 542.45c2.8402 4.3224 4.5366 5.4291 9.5253 6.4895 7.1607 4.9432 15.578 19.651 14.006 20.431l-8.9102 1.6946c0.28848-9.7164-5.7059-19.896-15.249-17.544-1.0586-9.4194-12.701-11.767-23.24-9.0479l-0.76043-8.9517c0.1698-1.2603 17.577 2.0607 24.628 6.9282zm-24.572-7.1256c12.374-0.38312 19.093 1.533 24.543 5.2956m23.721 27.732c-4.0285-11.707-8.2018-17.309-13.652-21.072" fill="#fff" stroke-linejoin="round" stroke-width="1.564" transform="matrix(2.7186 -1.8786 1.8786 2.7186 -1824.6 -395.8)"/></g><g id="change1_7"><path d="m428.94818,541.23172c-.14188-.1269-.31094-.19895-.48127-.27683-.13881-.08996-.29163-.13614-.44335-.19618-.14997-.06599-.28696-.15683-.4231-.24704-.15669-.10475-.31022-.21409-.46514-.32142-.16651-.10594-.32142-.21923-.46087-.3584-.15277-.15007-.32334-.27983-.49565-.40628-.16202-.11799-.29677-.26851-.44932-.39872-.12986-.13118-.29483-.19628-.4551-.27871-.18567-.05361-.36982-.08943-.5483-.16563-.17421-.09499-.37613-.11361-.57129-.12691-.18653-.03583-.37727-.06436-.55927-.11999-.15471-.07755-.32064-.12362-.47731-.19792-.17935-.02886-.35059-.09158-.52682-.13331-.09269-.01465-.1735-.06681-.26097-.09545-.08064-.02639-.1566-.03733-.23602-.07101-.16618-.09014-.34575-.14733-.5158-.22969-.15429-.11254-.33754-.13444-.51479-.18863-.20363-.05084-.39733-.13129-.59557-.19896-.18112-.05952-.36069-.11388-.53202-.19965-.20615-.04558-.41097-.06868-.61126-.13904-.16353-.05891-.32794-.10102-.48372-.18162-.14929-.02481-.27168-.11317-.4244-.11238-.16476.00186-.30098-.09369-.45179-.14146-.1721-.05729-.34926-.09874-.52435-.14684-1.09218-.04313 4.31891.31494-.26731-.0163-.39472-.02851.78888.06438 1.18316.09847l-.1724-.0072-.07925.00203c-.45314-.03263-.90635-.06494-1.35885-.10558-.02607-.00235-.0496-.01696-.07502-.02321-.079-.01941-.15604-.03674-.2372-.04066l-.0762-.01116 1.21182.10238-.06976-.00089c-.24074-.01888-1.03838-.03632-1.50585-.13349 3.17732.2625-.1008-.00154-.15096-.00596-.0682-.00602-.23337-.06257-.30599-.08392-.07361-.03684-.15485-.04029-.23397-.05741l1.29918-.08177 .23226.06337 .23369.0536 .07332.00695c-1.22817-.09668-2.09602-.1695.15047.01576l.15447.01724c-2.59241-.19552-.48601-.05136.2854.02279 .07896.01748.15871.03745.23861.05009l.07376.00801c-1.27998-.09478-1.60601-.09952-1.12621-.09032 .4663-.04349 1.45265.09825 1.54808.10495 .39443.0277-1.57649-.12687-1.18261-.09219 1.47759.13011.91709.00155 1.4519.1286 .17774.04585.35537.09495.52768.15837 .14626.06045.29321.10508.45253.11412 .14422.04151.28589.09624.42543.15081 .15546.06446.31886.10491.47623.16443 .20478.05515.41971.07019.6158.15593 .17246.07302.35291.12138.52841.18632 .19808.0676.39236.14662.59728.19271 .18147.04945.3524.11328.51586.20805l.51706.21839c.166.04916.32713.11165.49463.15586 .17651.05296.35998.08141.53025.15286 .15721.06362.31572.12666.47738.17722 .18235.03925.36387.08577.55036.1007 .2001.02721.39274.06802.57433.16092 .18269.06211.37689.08896.54997.1783 .1683.0821.32253.18129.45814.31203 .14552.13214.28056.27692.44348.38848 .17394.13252.34478.26898.50151.42189 .14037.1285.30227.22836.45734.33796s.31165.21411.47024.31701c.13554.08478.27374.16683.42537.2199 .15278.05608.29294.13534.43943.20577 .17456.08316.33331.18909.49262.29831l-1.30839.03155z" fill="#fff" stroke-linejoin="round" stroke-width="1.564" transform="matrix(2.7186 -1.8786 1.8786 2.7186 -1824.6 -395.8)"/></g><g id="change1_8"><path d="m440.45806,548.00743c.09962.09937.21381.18255.32664.26606 .08735.07653.17111.15679.26178.22946s.18163.12412.2523.21079c.05839.08033.12822.14976.20476.2125 .05886.06759.12299.12947.19242.18601 .07425.05321.14545.10683.20969.1718 .05865.06502.13449.11093.19376.17473 .0358.04916.09052.08117.13095.12526 .02779.0303.0497.06549.07486.098 .07394.08588.14005.17727.22083.25702 .06044.08351.14329.14633.21031.22339 .08022.07463.13574.16863.20457.25287 .06762.0934.13963.18414.21657.27012 .09511.07472.14896.18055.21881.27634l.21984.2806c.05702.0732.12982.13051.20345.18584 .08712.053.15926.12174.23274.19137s.15117.12535.23091.18258 .15605.10691.24215.14849 .17831.0952.26355.1495c.08295.054.16381.11113.24532.16726l.26517.18377 .28794.20011 .28997.19846 .24708.17063c.08704.06246.16119.14098.24315.21007 .08129.09646.15871.19888.22907.3039 .05649.09254.14326.15786.21612.23567 .06354.09199.12831.18507.17777.28568 .06355.12738.11144.26123.16211.39401 .03471.13448.09175.26094.13788.39157 .04234.1438.09567.28268.16669.4147 .04527.09285.08652.18783.13673.27815 .04815.0957.11217.18177.1595.27808 .04718.11352.12112.21218.19027.31277 .09138.11146.14445.24567.2331.35935s.17597.22122.27704.32017c.07602.08541.13917.1814.20495.27472s.14215.17316.22606.24813c.06114.07829.14183.13803.20655.21245 .04357.06993.0773.14395.12674.21034l-.64827-.00766c-.04329-.06655-.0754-.1403-.12704-.20097l-.20382-.20811c-.08283-.08091-.16035-.16751-.22756-.26196-.06197-.09121-.12426-.18339-.2002-.26366-.0985-.1042-.18778-.21666-.27656-.32915-.08272-.11771-.13921-.25151-.2338-.36114-.07236-.1023-.14097-.20701-.19303-.32143-.05092-.09429-.11395-.18143-.16204-.2773-.04655-.09155-.08913-.18497-.13033-.27905-.06611-.1365-.1196-.27758-.16423-.42257-.04829-.12958-.10637-.25549-.13851-.39066-.04965-.13175-.10005-.26335-.16847-.38681-.05099-.09338-.10779-.18605-.17797-.26612-.07923-.07568-.15552-.15402-.21398-.24756-.06945-.10117-.14183-.20366-.23235-.28702-.07878-.07008-.15276-.14667-.2426-.20299l-.24725-.17062-.28517-.19858-.29151-.20006-.26622-.18368c-.08121-.0561-.1627-.11184-.24632-.16433s-.17199-.10069-.26227-.14311-.16411-.10229-.24246-.15956-.16055-.12031-.23198-.19084-.15048-.12778-.2321-.18463-.1465-.12451-.20283-.20316l-.21503-.28221c-.06819-.09617-.13603-.18981-.22271-.27065-.0741-.08903-.14706-.17907-.21531-.27266s-.12952-.17292-.2081-.24803c-.07144-.07202-.142-.14453-.20776-.22189-.07799-.08362-.14589-.17553-.21925-.26316-.06444-.07766-.14106-.14256-.2109-.21525-.06563-.05705-.13364-.11145-.19357-.17478-.06563-.06142-.1421-.10859-.21009-.16733s-.12645-.12428-.19024-.18614c-.07565-.06664-.14087-.14238-.20357-.22121-.07653-.07668-.17038-.13128-.25309-.20089-.087-.07282-.16545-.15493-.25333-.22675-.11782-.08894-.23624-.17825-.34403-.2793l.65575.00026z" fill="#fff" stroke-linejoin="round" stroke-width="1.564" transform="matrix(2.7186 -1.8786 1.8786 2.7186 -1824.6 -395.8)"/></g><g id="change1_9"><path d="m432.49251,539.68254c.14058.10708.28285.21647.43934.2999 .04866.02595.09993.04674.14989.07011 .33191.1439.66408.28587.99017.44263l.19863.09334c.1303.05599.3535.13627.48324.18458 .30392.11315.6073.22572.91377.33191 .77009.27092 1.55285.50297 2.32372.77174 .58492.17816 1.15729.39313 1.73741.58551 .2579.08552.51665.16847.77462.25379 .37994.14231.77257.24589 1.15831.36986-1.59292-.43126-.7368-.17252-.37207-.12091l.29781.02954c.10902.01134.21859.01011.32803.00875l.92861.37599c-.11794.00107-.23616.00443-.35361-.00868l-.30543-.028-.15584-.01455-.13608-.03346c-.77797-.17799 2.05531.53917-1.21636-.30865-.35015-.1101-.69703-.22907-1.04017-.35952-.82454-.28706-1.65073-.56996-2.48211-.83679-.78308-.26998-1.57738-.50505-2.36031-.7754-.56154-.19282-1.12617-.3843-1.66796-.62758-.33234-.15262-.67024-.29276-1.00278-.44497-.05577-.0275-.11271-.05275-.1673-.0825-.16955-.09239-.32152-.21464-.48846-.31137l1.02493.13473z" fill="#fff" stroke-linejoin="round" stroke-width="1.564" transform="matrix(2.7186 -1.8786 1.8786 2.7186 -1824.6 -395.8)"/></g><g id="change1_10"><path d="m434.97589,536.33312c.14058.10707.28285.21646.43933.2999 .04867.02594.09993.04674.1499.07011 .33191.14389.66408.28587.99017.44262l.19863.09335c.1303.05598.3535.13627.48324.18457 .30391.11315.6073.22573.91377.33192 .77008.27091 1.55285.50297 2.32371.77173 .58493.17816 1.15729.39314 1.73742.58551 .2579.08553.51665.16848.77462.2538 .37994.1423.77256.24588 1.15831.36985-1.59293-.43125-.7368-.17251-.37208-.1209l.29782.02953c.10902.01135.21859.01012.32803.00876l.9286.37598c-.11793.00108-.23615.00444-.3536-.00867l-.30543-.028-.15584-.01456-.13608-.03346c-.77797-.17798 2.05531.53918-1.21636-.30864-.35015-.1101-.69703-.22907-1.04018-.35953-.82454-.28705-1.65072-.56995-2.4821-.83678-.78308-.26999-1.57738-.50505-2.36032-.77541-.56153-.19281-1.12617-.38429-1.66796-.62758-.33233-.15261-.67023-.29276-1.00278-.44496-.05576-.0275-.1127-.05276-.1673-.08251-.16955-.09238-.32151-.21463-.48846-.31137l1.02494.13474z" fill="#fff" stroke-linejoin="round" stroke-width="1.564" transform="matrix(2.7186 -1.8786 1.8786 2.7186 -1824.6 -395.8)"/></g><g id="change1_11"><path d="m437.24489,533.23676c.13514.10295.27192.20811.42235.28831l.14411.06741c.31908.13834.63842.27482.95191.42552l.19095.08974 .46457.17744c.29217.10878.58384.217.87846.31909 .74033.26045 1.49285.48354 2.23393.74192 .56233.17128 1.11258.37794 1.67028.56289l.74469.24398c.36526.1368.74272.23639 1.11356.35556-1.53138-.41459-.70833-.16585-.3577-.11623l.28631.0284c.1048.0109.21014.00972.31535.00841l.89272.36146c-.11337.00103-.22702.00426-.33994-.00834l-.29362-.02692-.14982-.01399-.13082-.03216c-.74791-.17112 1.97589.51833-1.16937-.29673-.33662-.10584-.67009-.22022-.99998-.34563-.79267-.27597-1.58694-.54793-2.3862-.80445-.75282-.25955-1.51643-.48554-2.26911-.74544-.53984-.18537-1.08266-.36945-1.60351-.60333-.31949-.14673-.64434-.28145-.96404-.42778l-.16083-.07931c-.163-.08882-.30909-.20635-.46958-.29934l.98533.12952z" fill="#fff" stroke-linejoin="round" stroke-width="1.503" transform="matrix(2.7186 -1.8786 1.8786 2.7186 -1824.6 -395.8)"/></g><g id="change1_12"><path d="m439.69436,530.19593c.12847.09873.25843.19964.40285.27471l.13872.06235c.30763.12702.61556.25215.91718.39192 .06127.02768.1215.05758.18381.08305 .12078.04937.3283.11873.44886.16065 .28241.09817.56434.19581.84943.2871 .71623.23339 1.44596.42843 2.16299.65968 .54511.15037 1.0769.3371 1.61691.50151l.72117.21653c.35303.12356.71956.2089 1.07879.31438-1.48662-.35698-.6887-.13886-.34645-.10303 .0772.00808.20112.01312.27997.01698 .10246.00673.20594.00119.3093-.00446l.8617.32944c-.11137.00572-.2231.01367-.33345.00555l-.28721-.01518c-.04884-.0027-.09829-.0018-.14654-.008l-.12713-.02721c-.72734-.14255 1.91882.44379-1.136-.25246-.32618-.09338-.64892-.19552-.96767-.309-.76698-.24695-1.53569-.48979-2.30993-.71677-.72852-.23196-1.46902-.42947-2.19739-.6618-.52244-.16557-1.04787-.32972-1.54967-.54523-.30768-.13549-.6211-.25861-.92899-.3937l-.15466-.07373c-.1564-.08327-.29501-.19633-.44877-.28394l.96218.09066z" fill="#fff" stroke-linejoin="round" stroke-width="1.564" transform="matrix(2.7186 -1.8786 1.8786 2.7186 -1824.6 -395.8)"/></g><g id="change1_13"><path d="m442.17121,526.83529c.12847.09873.25844.19964.40285.27471l.13872.06235c.30763.12702.61557.25215.91718.39192 .06127.02769.1215.05758.18381.08305 .12078.04937.3283.11874.44886.16065 .28241.09818.56434.19581.84944.28711 .71622.23338 1.44595.42842 2.16299.65968 .5451.15037 1.07689.33709 1.6169.5015l.72118.21653c.35302.12356.71955.20891 1.07878.31438-1.48662-.35698-.6887-.13886-.34645-.10303 .0772.00809.20112.01312.27997.01698 .10246.00673.20594.0012.3093-.00446l.8617.32945c-.11137.00571-.2231.01367-.33345.00555l-.28721-.01518c-.04884-.00271-.09829-.00181-.14653-.00801l-.12714-.0272c-.72734-.14256 1.91882.44378-1.136-.25247-.32618-.09338-.64891-.19552-.96767-.309-.76698-.24695-1.53568-.48979-2.30993-.71676-.72852-.23197-1.46901-.42948-2.19739-.66181-.52244-.16557-1.04787-.32972-1.54967-.54522-.30767-.13549-.6211-.25862-.92899-.3937l-.15466-.07374c-.1564-.08327-.29501-.19633-.44877-.28394l.96218.09066z" fill="#fff" stroke-linejoin="round" stroke-width="1.564" transform="matrix(2.7186 -1.8786 1.8786 2.7186 -1824.6 -395.8)"/></g><g id="change1_14"><path d="m444.15608,523.53271c.12847.09873.25843.19964.40285.27471l.13872.06235c.30762.12702.61556.25215.91718.39192 .06127.02768.1215.05758.18381.08306 .12078.04936.3283.11873.44885.16064 .28242.09818.56435.19582.84944.28711 .71622.23338 1.44596.42842 2.16299.65968 .54511.15037 1.0769.33709 1.61691.5015l.72117.21653c.35302.12356.71956.20891 1.07879.31438-1.48662-.35698-.6887-.13886-.34645-.10303 .0772.00809.20112.01312.27996.01698 .10247.00673.20595.0012.3093-.00446l.86171.32945c-.11137.00571-.22311.01367-.33345.00555l-.28721-.01518c-.04885-.00271-.09829-.0018-.14654-.00801l-.12713-.0272c-.72734-.14256 1.91882.44378-1.13601-.25247-.32617-.09338-.64891-.19552-.96766-.309-.76699-.24695-1.53569-.48979-2.30993-.71676-.72853-.23197-1.46902-.42948-2.19739-.66181-.52244-.16557-1.04787-.32972-1.54968-.54522-.30767-.13549-.62109-.25862-.92898-.3937l-.15467-.07374c-.15639-.08327-.295-.19632-.44876-.28394l.96218.09066z" fill="#fff" stroke-linejoin="round" stroke-width="1.564" transform="matrix(2.7186 -1.8786 1.8786 2.7186 -1824.6 -395.8)"/></g><g id="change1_15"><path d="m446.92681,520.21853c.11939.09247.24014.18703.37551.25583l.13035.05654c.28941.11436.57919.22687.86247.3539l.1727.07534c.11365.04441.30941.10559.42309.14271 .26629.08695.53214.17339.80122.25351 .67586.20525 1.36584.37253 2.04254.57567 .51526.12953 1.01664.29508 1.52659.43852l.68112.18859c.33285.10951.67983.18118 1.01918.27279-1.40695-.30129-.65264-.11362-.32724-.08963 .0734.00541.19149.00634.26659.00756l.29528-.01437 .81155.29456c-.10645.0092-.21332.0206-.31835.01622l-.27356-.00557-.13956-.0031c-.04107-.00404-.08007-.01572-.12043-.02251-.6894-.11599 1.81655.37227-1.07577-.21034-.30822-.08084-.61286-.17037-.91333-.27112-.72386-.21688-1.44948-.42968-2.1809-.62678-.68764-.20346-1.38781-.37281-2.07529-.57663-.49315-.14515-.98918-.2888-1.46102-.48349-.2892-.12265-.58427-.23302-.87369-.35526-.0484-.02239-.098-.04255-.14519-.06717-.14653-.07643-.27514-.1826-.41901-.26337l.91515.0576z" fill="#fff" stroke-linejoin="round" stroke-width="1.564" transform="matrix(2.7186 -1.8786 1.8786 2.7186 -1824.6 -395.8)"/></g><g id="change1_16"><path d="m449.39886,516.84935c.1194.09247.24015.18703.37552.25583l.13034.05654c.28942.11436.5792.22687.86247.3539l.1727.07534c.11365.04441.30942.10559.42309.1427 .2663.08696.53215.17339.80123.25352 .67585.20525 1.36584.37252 2.04254.57567 .51526.12953 1.01664.29508 1.52659.43852l.68112.18859c.33285.10951.67982.18118 1.01918.27279-1.40695-.30129-.65264-.11362-.32724-.08963 .0734.00542.19148.00633.26659.00756l.29527-.01437 .81156.29456c-.10645.0092-.21333.02059-.31835.01621l-.27356-.00556-.13956-.0031c-.04107-.00404-.08008-.01572-.12043-.02251-.6894-.11599 1.81654.37227-1.07578-.21034-.30821-.08084-.61285-.17037-.91333-.27112-.72385-.21688-1.44947-.42968-2.18089-.62678-.68764-.20346-1.38781-.37281-2.07529-.57663-.49315-.14514-.98919-.2888-1.46103-.48349-.28919-.12265-.58427-.23302-.87368-.35527-.0484-.02238-.09801-.04254-.14519-.06716-.14654-.07644-.27514-.1826-.41902-.26337l.91515.0576z" fill="#fff" stroke-linejoin="round" stroke-width="1.564" transform="matrix(2.7186 -1.8786 1.8786 2.7186 -1824.6 -395.8)"/></g><g id="change1_17"><path d="m451.39961,513.55291c.11939.09247.24013.18702.3755.25582l.13035.05654c.28942.11436.5792.22687.86247.3539l.1727.07534c.11365.04442.30942.10559.42309.14271 .2663.08695.53215.17339.80123.25352 .67585.20524 1.36584.37252 2.04253.57566 .51527.12953 1.01665.29509 1.52659.43852l.68113.18859c.33285.10951.67982.18118 1.01918.27279-1.40695-.30129-.65265-.11362-.32724-.08963 .0734.00542.19148.00634.26658.00756l.29528-.01437 .81156.29456c-.10645.0092-.21332.0206-.31835.01622l-.27356-.00557-.13956-.00309c-.04107-.00405-.08008-.01573-.12043-.02251-.6894-.116 1.81654.37226-1.07578-.21035-.30821-.08084-.61285-.17036-.91333-.27112-.72385-.21688-1.44947-.42968-2.18089-.62678-.68764-.20346-1.38781-.37281-2.07529-.57663-.49315-.14515-.98918-.2888-1.46103-.48349-.28919-.12265-.58427-.23301-.87368-.35526-.0484-.02239-.098-.04255-.14519-.06717-.14653-.07643-.27514-.18259-.41902-.26337l.91516.05761z" fill="#fff" stroke-linejoin="round" stroke-width="1.564" transform="matrix(2.7186 -1.8786 1.8786 2.7186 -1824.6 -395.8)"/></g><g id="change1_18"><path d="m453.70071,510.40601c.11939.09247.24014.18703.37551.25583l.13035.05654c.28941.11436.5792.22687.86247.3539l.1727.07534c.11365.04441.30941.10559.42309.1427 .26629.08696.53214.1734.80123.25352 .67585.20525 1.36583.37253 2.04253.57567 .51526.12953 1.01664.29508 1.52659.43852l.68112.18859c.33285.10951.67983.18118 1.01918.27279-1.40694-.30129-.65264-.11362-.32723-.08963 .07339.00541.19148.00634.26658.00756l.29528-.01437 .81155.29456c-.10645.0092-.21332.02059-.31835.01622l-.27356-.00557-.13956-.0031c-.04107-.00404-.08007-.01572-.12043-.02251-.68939-.11599 1.81655.37227-1.07577-.21034-.30821-.08084-.61286-.17037-.91333-.27112-.72386-.21688-1.44947-.42968-2.1809-.62678-.68763-.20346-1.3878-.37281-2.07529-.57663-.49315-.14515-.98918-.2888-1.46102-.48349-.28919-.12265-.58427-.23302-.87369-.35526-.04839-.02239-.098-.04255-.14519-.06717-.14653-.07644-.27513-.1826-.41901-.26337l.91515.0576z" fill="#fff" stroke-linejoin="round" stroke-width="1.564" transform="matrix(2.7186 -1.8786 1.8786 2.7186 -1824.6 -395.8)"/></g><g id="change1_19"><path d="m456.17277,507.03683c.11939.09247.24014.18703.37551.25583l.13034.05654c.28942.11436.5792.22686.86248.3539l.17269.07534c.11366.04441.30943.10558.4231.1427 .26629.08696.53214.17339.80122.25352 .67586.20525 1.36584.37252 2.04254.57567 .51526.12953 1.01664.29508 1.52659.43852l.68112.18859c.33285.10951.67982.18118 1.01918.27279-1.40695-.30129-.65264-.11362-.32724-.08963 .0734.00542.19148.00633.26659.00756l.29527-.01437 .81156.29456c-.10645.0092-.21332.02059-.31835.01621l-.27356-.00556-.13956-.0031c-.04107-.00404-.08008-.01572-.12043-.02251-.6894-.116 1.81654.37227-1.07578-.21035-.3082-.08083-.61285-.17036-.91333-.27111-.72385-.21688-1.44947-.42968-2.18089-.62678-.68764-.20346-1.38781-.37281-2.07529-.57663-.49315-.14515-.98918-.2888-1.46103-.48349-.28919-.12265-.58427-.23302-.87368-.35527-.0484-.02238-.098-.04254-.14519-.06716-.14653-.07644-.27514-.1826-.41902-.26337l.91516.0576z" fill="#fff" stroke-linejoin="round" stroke-width="1.564" transform="matrix(2.7186 -1.8786 1.8786 2.7186 -1824.6 -395.8)"/></g><g id="change1_20"><path d="m471.15883,492.57336c-.13308.19013-.26617.3832-.39725.57507l-.33498.49022-.47164.68207-.42469.61625-.49432.71486-.48488.70337-.45254.65506-.42135.61045-.54266.78577-.42884.62228-.38297.55442-.39502.57244-.32755.47486-.29521.42777-.28154.40799-.30891.44663-.37233.53975-.29309.42487-.3199.46339-.24348.35307-.2342.33906c-.06495.095-.13077.18981-.19632.28458l-.23638.34239-.23056.33388-.25163.36456-.2386.3455-.2835.40593-.1173.16906-.34489.35861 .12239-.17637 .2767-.39566 .23792-.34478 .25199-.36495 .22997-.33326 .2363-.3423 .19728-.28558 .23319-.33801 .24537-.35506 .31984-.46332 .29459-.42642 .3743-.54181 .30469-.44222 .28237-.40887 .29582-.42839 .32944-.47684 .3961-.57356 .38132-.55271 .43413-.6278 .54108-.78411 .42181-.61094 .45017-.65259 .48976-.70846 .48847-.70877 .43004-.62181 .46032-.66882 .33558-.48903 .39503-.57603 .35056-.36569z" fill="#fff" stroke-linejoin="round" stroke-width="1.164" transform="matrix(2.7186 -1.8786 1.8786 2.7186 -1824.6 -395.8)"/></g><g id="change2_1"><path d="m465.82 508.82c8.9925-7.5485 9.851-9.425 7.6565-11.985-0.87013-1.0149-2.5456-3.3056-4.3185-1.3201l1.8394-2.4313 5.6354 7.3768c-3.3735 4.1615-5.8383 5.142-10.813 8.3592z" fill="inherit" stroke-linejoin="round" stroke-width=".764" transform="matrix(2.7186 -1.8786 1.8786 2.7186 -1824.6 -395.8)"/></g></g></svg>